<svg xmlns="http://www.w3.org/2000/svg" viewBox="0 0 64 64" role="img" aria-label="Product Musketeers favicon">
  <defs>
    <linearGradient id="bg" x1="10" y1="8" x2="54" y2="58" gradientUnits="userSpaceOnUse">
      <stop offset="0" stop-color="#20324a"/>
      <stop offset="1" stop-color="#111d2f"/>
    </linearGradient>
    <linearGradient id="hat" x1="18" y1="16" x2="43" y2="41" gradientUnits="userSpaceOnUse">
      <stop offset="0" stop-color="#f3efe8"/>
      <stop offset="1" stop-color="#d8cfbf"/>
    </linearGradient>
    <linearGradient id="feather" x1="37" y1="14" x2="51" y2="30" gradientUnits="userSpaceOnUse">
      <stop offset="0" stop-color="#d46f52"/>
      <stop offset="1" stop-color="#b84f38"/>
    </linearGradient>
  </defs>
  <rect width="64" height="64" rx="18" fill="url(#bg)"/>
  <path d="M15 38c0-3 2-5 5-5h25c4 0 7 2 9 5-1 3-4 5-8 5H22c-4 0-6-1-7-5Z" fill="#0d1726"/>
  <path d="M18 37c2-10 9-18 18-18 6 0 11 2 15 7-3 1-6 2-8 5-2-2-4-3-7-3-5 0-10 4-12 11l-6-2Z" fill="url(#hat)"/>
  <path d="M23 43c4-1 8-1 13-1 7 0 12 0 18 1-3 3-7 5-13 5H31c-4 0-6-1-8-5Z" fill="#f0e6d8"/>
  <path d="M39 18c4-4 8-5 12-4-2 3-3 6-3 10 0 4 1 8 4 11-5 0-8-2-10-5-1-4-2-8-3-12Z" fill="url(#feather)"/>
  <circle cx="31" cy="35" r="2.2" fill="#c96a4c"/>
</svg>
