<svg xmlns="http://www.w3.org/2000/svg" viewBox="0 0 64 64" role="img" aria-label="Product Musketeers bold favicon">
  <defs>
    <linearGradient id="bg" x1="12" y1="8" x2="52" y2="56" gradientUnits="userSpaceOnUse">
      <stop offset="0" stop-color="#23354d"/>
      <stop offset="1" stop-color="#101a2a"/>
    </linearGradient>
    <linearGradient id="hat" x1="16" y1="18" x2="43" y2="42" gradientUnits="userSpaceOnUse">
      <stop offset="0" stop-color="#f6f0e7"/>
      <stop offset="1" stop-color="#d9cfbe"/>
    </linearGradient>
    <linearGradient id="feather" x1="39" y1="14" x2="52" y2="29" gradientUnits="userSpaceOnUse">
      <stop offset="0" stop-color="#d77758"/>
      <stop offset="1" stop-color="#b65139"/>
    </linearGradient>
  </defs>
  <rect width="64" height="64" rx="18" fill="url(#bg)"/>
  <path d="M12 39c0-3 3-5 7-5h27c6 0 9 2 11 5-1 4-5 7-11 7H21c-5 0-8-2-9-7Z" fill="#0d1726"/>
  <path d="M17 38c2-11 10-19 20-19 7 0 12 2 16 7-5 1-8 3-10 6-2-2-5-4-8-4-6 0-11 4-13 12l-5-2Z" fill="url(#hat)"/>
  <path d="M25 46c3-1 8-1 14-1 8 0 13 0 17 1-3 3-7 5-13 5H32c-4 0-6-1-7-5Z" fill="#f3eadc"/>
  <path d="M40 18c4-4 8-5 12-4-2 3-3 6-3 9 0 4 2 8 5 11-5 0-9-2-11-5-1-4-2-8-3-11Z" fill="url(#feather)"/>
  <circle cx="32" cy="36" r="2.5" fill="#c96a4c"/>
</svg>
